<?xml version="1.0" encoding="utf-8"?>
<!-- Generator: Adobe Illustrator 22.0.1, SVG Export Plug-In . SVG Version: 6.00 Build 0)  -->
<svg version="1.1" id="Layer_1" xmlns="http://www.w3.org/2000/svg" xmlns:xlink="http://www.w3.org/1999/xlink" x="0px" y="0px"
	 viewBox="0 0 2000 334" style="enable-background:new 0 0 2000 334;" xml:space="preserve">
<style type="text/css">
	.st0{fill:#1B5074;}
	.st1{fill:#4F9EA6;}
</style>
<path class="st0" d="M341.7,15.9h-66.2c-1,0-1.5,0.5-1.5,1l-96.4,228.6L81.7,17.4c-0.5-0.5-1-1-1.5-1H13.5c-0.5,0-1,0.5-1.5,1
	c-0.5,0.5-0.5,1,0,2L145.5,320c0.5,0.5,1,1,1.5,1h61.3c1,0,1.5-0.5,1.5-1L343.2,19.4c0.5-0.5,0-1.5,0-2
	C342.7,16.4,342.2,15.9,341.7,15.9"/>
<path class="st0" d="M1001.2,320c1,0,2.5-1,2.5-2V17.9c0-1-1-2-2-2h-54.9c-1,0-2,1-2,2V318c0,1,1.5,2,2.5,2H1001.2z"/>
<path class="st0" d="M1304.2,16.4h-252.1c-0.5,0-1,0-1.5,0.5c-0.5,0.5-0.5,1-0.5,1.5v56c0,1,1,2,2,2h96.9V319c0,1,1,2,2,2h54.9
	c0.5,0,1,0,1.5-0.5c0.5-0.5,0.5-1,0.5-1.5V76.4h96.4c0.5,0,1,0,1.5-0.5c0.5-0.5,0.5-1,0.5-1.5v-56
	C1306.2,16.9,1305.2,16.4,1304.2,16.4"/>
<path class="st0" d="M543.4,15.9h-90.5c-51.4,0-93.4,42.5-93.4,95v207.6c0,0.5,0,1,0.5,1.5c0.5,0.5,1,0.5,1.5,0.5h54.9c1,0,2-1,2-2
	V214h160.2v104.5c0,1,1,2,2,2h54.9c0.5,0,1,0,1.5-0.5c0.5-0.5,0.5-1,0.5-1.5V110.9C637.3,58.9,595.3,15.9,543.4,15.9 M418.3,153.9
	v-43c0-19.5,15.8-35.5,34.6-35.5h90.5c19.3,0,34.6,16,34.6,35.5v43H418.3z"/>
<path class="st0" d="M1982.4,110.9c0-52.5-42-95-93.4-95h-191.3c-1,0-2,1-2,2v300.6c0,1,1,2,2,2h55.4c0.5,0,1,0,1.5-0.5
	s0.5-1,0.5-1.5v-105h134c18.3,0,34.6,14,34.6,30.5v74.5c0,1,1,2,2,2h54.9c0.5,0,1.5,0,2-0.5s0-1,0-1.5V248l-1.5-13
	c0-0.5,0-0.5-0.5-1c-3-19-11.4-36-23.7-49.5c16.3-17.5,25.7-40,26.2-64C1982.4,119.9,1982.4,111.4,1982.4,110.9 M1923.6,119.9
	c-1,17-15.3,33.5-29.2,33.5h-139.9v-78H1889c19.3,0,35.1,16,35.1,35.5C1923.6,111.4,1923.6,118.9,1923.6,119.9"/>
<path class="st0" d="M892.4,265.5c0-1-1-2-2-2H755V17.9c0-0.5,0-1-0.5-1.5c-0.5-0.5-1-0.5-1.5-0.5h-55.4c-1,0-1.5,1-1.5,2V293
	c0,13.5,6.9,27.5,27.2,27.5h167.1c0.5,0,1,0,1.5-0.5c0.5-0.5,0.5-1,0.5-1.5V265.5z"/>
<path class="st1" d="M1545.9,15.9h-115.2c-51.4,0-93.4,42.5-93.4,95v114.5c0,49.5,36.6,90,85,95h17.3h114.2l0,0h1
	c48.4-4.5,85-45.5,85-95V110.9C1639.8,58.9,1597.8,15.9,1545.9,15.9 M1581,225.5c0,18.5-12.9,33.5-29.7,35h-126.1
	c-16.8-1.5-29.7-17-29.7-35V110.9c0-19.5,15.8-35.5,35.1-35.5h115.7c19.3,0,35.1,16,35.1,35.5v114.5H1581z"/>
</svg>
